# File created by Blade
# Date/Time:  Thu Sep 25 19:26:26 2014
# Frame Rate: 120.000 fps
#------------------------------------------------------
:FULLY-SPECIFIED
:DEGREES
545
root -2.026681 31.860293 -12.016780 107.607011 -12.219315 -1.305290
Spine 40.234181 6.905640 18.284568
Head -17.649911 -9.939970 9.251173
LeftShoulder -0.919236 -27.315768 48.141474
LeftArm 55.392630 -33.463690 -30.843098
LeftForeArm 49.092592 -0.000000 60.298249
LeftHand -34.169838 0.000000 32.960746
LeftHandThumb1 -26.253704 0.000000 33.147579
RightShoulder 1.674999 65.764314 -46.599828
RightArm -1.701301 26.629620 44.113520
RightForeArm -20.035165 -0.000000 47.373536
RightHand -6.164123 -0.000000 -45.021718
RightHandThumb1 -24.326973 -0.000000 -32.862282
LeftUpLeg -108.380567 14.836394 -18.487368
LeftLeg -3.335085 -0.000000 0.000000
LeftFoot -2.915866 15.725876 -34.317199
LeftToeBase 10.011740 -0.000000 -0.000000
RightUpLeg -116.533776 -8.442179 10.228254
RightLeg -1.617898 -0.000000 0.000000
RightFoot 7.385859 -3.581952 8.480901
RightToeBase 1.137722 -0.000000 -0.000000
546
root -2.011110 31.858935 -12.025401 107.559880 -11.976951 -1.247665
Spine 40.281515 6.841058 18.323280
Head -17.886173 -10.029154 8.967400
LeftShoulder -0.798443 -27.342645 47.930305
LeftArm 54.836095 -33.403295 -30.773253
LeftForeArm 49.247534 -0.000000 60.675656
LeftHand -33.973155 -0.000000 33.867224
LeftHandThumb1 -26.253704 0.000000 33.147579
RightShoulder 1.810632 65.702122 -46.493814
RightArm -2.011910 27.222918 44.138615
RightForeArm -19.353654 -0.000000 47.954514
RightHand -6.119215 -0.000000 -44.697410
RightHandThumb1 -24.326973 -0.000000 -32.862282
LeftUpLeg -108.424032 14.788059 -18.380006
LeftLeg -3.354265 -0.000000 0.000000
LeftFoot -2.774553 15.587912 -34.202566
LeftToeBase 10.009080 -0.000000 -0.000000
RightUpLeg -116.521287 -8.472030 10.438043
RightLeg -1.585708 -0.000000 0.000000
RightFoot 7.355734 -3.656826 8.542685
RightToeBase 1.179149 -0.000000 -0.000000
547
root -1.994877 31.858499 -12.028629 107.577084 -11.770585 -1.183362
Spine 40.235474 6.900688 18.386825
Head -18.060802 -10.275709 8.759528
LeftShoulder -0.584762 -27.383269 47.686650
LeftArm 54.374129 -33.322321 -30.787253
LeftForeArm 49.428126 -0.000000 61.072696
LeftHand -33.998113 -0.000000 34.046065
LeftHandThumb1 -26.253704 0.000000 33.147579
RightShoulder 1.465706 66.094212 -46.772577
RightArm -2.552773 27.733934 44.331569
RightForeArm -19.215816 -0.000000 48.321012
RightHand -5.845146 -0.000000 -44.288615
RightHandThumb1 -24.326973 -0.000000 -32.862282
LeftUpLeg -108.484157 14.705861 -18.279160
LeftLeg -3.400901 -0.000000 0.000000
LeftFoot -2.653242 15.509187 -34.089367
LeftToeBase 9.972060 -0.000000 -0.000000
RightUpLeg -116.595303 -8.497629 10.648727
RightLeg -1.485531 -0.000000 0.000000
RightFoot 7.273475 -3.660416 8.448431
RightToeBase 1.309210 -0.000000 -0.000000
548
root -1.978425 31.859684 -12.035010 107.574787 -11.569702 -1.137720
Spine 40.246241 6.925578 18.360447
Head -18.323553 -10.448062 8.735736
LeftShoulder -0.485969 -27.406554 47.532895
LeftArm 53.871716 -33.187747 -30.704735
LeftForeArm 49.133382 -0.000000 61.437345
LeftHand -34.322568 -0.000000 33.656296
LeftHandThumb1 -26.253704 0.000000 33.147579
RightShoulder 1.323778 66.158773 -46.887974
RightArm -3.013212 28.346711 44.419876
RightForeArm -18.615930 -0.000000 48.825628
RightHand -5.155160 -0.000000 -43.643170
RightHandThumb1 -24.326973 -0.000000 -32.862282
LeftUpLeg -108.552718 14.629017 -18.214763
LeftLeg -3.418767 -0.000000 0.000000
LeftFoot -2.613872 15.432823 -34.089108
LeftToeBase 10.061816 -0.000000 -0.000000
RightUpLeg -116.605316 -8.557878 10.756331
RightLeg -1.418784 -0.000000 0.000000
RightFoot 7.248493 -3.795722 8.555402
RightToeBase 1.149043 -0.000000 -0.000000
549
root -1.963653 31.859969 -12.043169 107.544132 -11.337622 -1.078362
Spine 40.306562 6.863589 18.339953
Head -18.811823 -10.379827 8.517143
LeftShoulder -0.532425 -27.283355 47.414077
LeftArm 53.472037 -33.092492 -30.662136
LeftForeArm 48.991180 -0.000000 61.653565
LeftHand -34.223100 0.000000 34.202822
LeftHandThumb1 -26.253704 0.000000 33.147579
RightShoulder 1.227022 66.161345 -46.939897
RightArm -3.287521 28.842831 44.511163
RightForeArm -18.129023 -0.000000 49.301842
RightHand -5.201287 -0.000000 -44.138552
RightHandThumb1 -24.326973 -0.000000 -32.862282
LeftUpLeg -108.498329 14.642677 -17.873421
LeftLeg -3.535104 -0.000000 0.000000
LeftFoot -2.577020 15.593778 -33.957005
LeftToeBase 10.077087 -0.000000 -0.000000
RightUpLeg -116.591070 -8.619292 10.892002
RightLeg -1.371239 -0.000000 0.000000
RightFoot 7.219694 -3.901457 8.673888
RightToeBase 1.080401 -0.000000 -0.000000
550
root -1.949535 31.862055 -12.052903 107.546313 -11.093317 -1.047041
Spine 40.275637 6.884152 18.351127
Head -18.960653 -10.475627 8.291367
LeftShoulder -0.376567 -27.197760 47.200184
LeftArm 52.966747 -32.990779 -30.513904
LeftForeArm 49.199668 -0.000000 61.896059
LeftHand -34.252239 -0.000000 34.457116
LeftHandThumb1 -26.253704 0.000000 33.147579
RightShoulder 1.350290 66.039205 -46.818974
RightArm -3.618978 29.379763 44.535868
RightForeArm -17.610506 -0.000000 49.830342
RightHand -4.821933 -0.000000 -44.009049
RightHandThumb1 -24.326973 -0.000000 -32.862282
LeftUpLeg -108.606910 14.584033 -17.797210
LeftLeg -3.520737 -0.000000 0.000000
LeftFoot -2.469078 15.497849 -33.862066
LeftToeBase 10.010359 -0.000000 -0.000000
RightUpLeg -116.579250 -8.673928 11.013569
RightLeg -1.341049 -0.000000 0.000000
RightFoot 7.059204 -3.866790 8.366641
RightToeBase 1.789608 -0.000000 -0.000000
551
root -1.935694 31.862541 -12.062286 107.544670 -10.862825 -1.007399
Spine 40.244211 6.888692 18.314262
Head -19.030453 -10.656387 8.226523
LeftShoulder -0.256923 -26.931597 46.954728
LeftArm 52.711454 -33.053701 -30.405244
LeftForeArm 49.084047 -0.000000 61.996334
LeftHand -34.249854 -0.000000 35.253130
LeftHandThumb1 -26.253704 0.000000 33.147579
RightShoulder 1.461237 65.935319 -46.680286
RightArm -3.951454 29.867360 44.587930
RightForeArm -17.521129 -0.000000 50.363716
RightHand -4.819242 -0.000000 -44.053249
RightHandThumb1 -24.326973 -0.000000 -32.862282
LeftUpLeg -108.781240 14.474258 -17.890851
LeftLeg -3.440144 -0.000000 0.000000
LeftFoot -2.307365 15.181376 -33.815398
LeftToeBase 10.041001 -0.000000 -0.000000
RightUpLeg -116.561206 -8.750192 11.083573
RightLeg -1.287631 -0.000000 0.000000
RightFoot 6.980792 -4.176482 8.486033
RightToeBase 1.771528 -0.000000 -0.000000
552
root -1.918257 31.862778 -12.070132 107.492678 -10.633726 -0.914091
Spine 40.250261 6.769918 18.305901
Head -19.182356 -10.808387 7.964503
LeftShoulder -0.176896 -26.762412 46.778554
LeftArm 52.218152 -32.980086 -30.317064
LeftForeArm 49.009946 -0.000000 62.276711
LeftHand -34.549340 -0.000000 34.970827
LeftHandThumb1 -26.253704 0.000000 33.147579
RightShoulder 1.647084 65.817561 -46.570478
RightArm -4.311033 30.372184 44.612174
RightForeArm -17.470175 -0.000000 50.909797
RightHand -4.603584 0.000000 -44.136764
RightHandThumb1 -24.326973 -0.000000 -32.862282
LeftUpLeg -108.780012 14.398547 -17.729664
LeftLeg -3.493337 -0.000000 0.000000
LeftFoot -2.167880 15.123676 -33.692271
LeftToeBase 10.033911 -0.000000 -0.000000
RightUpLeg -116.517771 -8.877312 11.202527
RightLeg -1.264843 -0.000000 0.000000
RightFoot 6.969177 -4.326814 8.712263
RightToeBase 1.606778 -0.000000 -0.000000
553
root -1.903655 31.863655 -12.077859 107.477222 -10.387552 -0.840361
Spine 40.200686 6.687893 18.324710
Head -19.209946 -11.006185 7.568468
LeftShoulder -0.014251 -26.776857 46.534478
LeftArm 51.555068 -32.710354 -30.055811
LeftForeArm 48.808431 -0.000000 62.507473
LeftHand -34.779536 -0.000000 34.710456
LeftHandThumb1 -26.253704 0.000000 33.147579
RightShoulder 1.855342 65.703431 -46.448866
RightArm -4.679311 30.920206 44.656846
RightForeArm -17.462978 -0.000000 51.505017
RightHand -4.515837 0.000000 -44.273258
RightHandThumb1 -24.326973 -0.000000 -32.862282
LeftUpLeg -108.853617 14.303578 -17.666963
LeftLeg -3.518730 -0.000000 0.000000
LeftFoot -2.016003 14.974079 -33.637813
LeftToeBase 10.082934 -0.000000 -0.000000
RightUpLeg -116.486997 -8.953046 11.343056
RightLeg -1.284094 -0.000000 0.000000
RightFoot 6.939563 -4.440743 8.618312
RightToeBase 1.766683 -0.000000 -0.000000
554
root -1.889805 31.864213 -12.088309 107.475258 -10.145468 -0.791120
Spine 40.171817 6.712390 18.284041
Head -19.456332 -11.075580 7.607523
LeftShoulder 0.036130 -26.654691 46.407964
LeftArm 51.211543 -32.570159 -29.991468
LeftForeArm 48.875561 0.000000 62.583997
LeftHand -34.597499 0.000000 35.462435
LeftHandThumb1 -26.253704 0.000000 33.147579
RightShoulder 1.837435 65.519163 -46.391802
RightArm -4.951942 31.257731 44.726426
RightForeArm -17.779998 -0.000000 52.059777
RightHand -4.563791 -0.000000 -44.236751
RightHandThumb1 -24.326973 -0.000000 -32.862282
LeftUpLeg -108.963205 14.227344 -17.625542
LeftLeg -3.513201 -0.000000 0.000000
LeftFoot -1.874051 14.804443 -33.570191
LeftToeBase 10.073295 -0.000000 -0.000000
RightUpLeg -116.468642 -9.011277 11.456709
RightLeg -1.292134 -0.000000 0.000000
RightFoot 6.918290 -4.591134 8.589333
RightToeBase 1.686060 -0.000000 -0.000000
